<?xml version="1.0" encoding="UTF-8"?>
<svg width="17px" height="10px" viewBox="0 0 17 10" version="1.1" xmlns="http://www.w3.org/2000/svg" xmlns:xlink="http://www.w3.org/1999/xlink">
    <g fill="#515151" >
        <path d="M16,1.33066132 C16,1.45891784 15.9358717,1.60320641 15.8396794,1.6993988 L8.36873747,9.17034068 C8.27254509,9.26653307 8.12825651,9.33066132 8,9.33066132 C7.87174349,9.33066132 7.72745491,9.26653307 7.63126253,9.17034068 L0.160320641,1.6993988 C0.0641282565,1.60320641 0,1.45891784 0,1.33066132 C0,1.20240481 0.0641282565,1.05811623 0.160320641,0.961923848 L0.961923848,0.160320641 C1.05811623,0.0641282565 1.18637275,0 1.33066132,0 C1.45891784,0 1.60320641,0.0641282565 1.6993988,0.160320641 L8,6.46092184 L14.3006012,0.160320641 C14.3967936,0.0641282565 14.5410822,0 14.6693387,0 C14.7975952,0 14.9418838,0.0641282565 15.0380762,0.160320641 L15.8396794,0.961923848 C15.9358717,1.05811623 16,1.20240481 16,1.33066132 Z"></path>
    </g>
</svg>
